<svg width="40" height="40" viewBox="0 0 40 40" fill="none" xmlns="http://www.w3.org/2000/svg">
  <path d="M10 28C10 22.4772 14.4772 18 20 18H30C32.7614 18 35 20.2386 35 23C35 25.7614 32.7614 28 30 28H10Z" fill="#4285F4" opacity="0.9" />
  <path d="M10 12C10 14.7614 12.2386 17 15 17H25C30.5228 17 35 12.5228 35 7C35 1.47715 30.5228 -3 25 -3H15C12.2386 -3 10 -0.761424 10 2Z" fill="#EA4335" opacity="0.9" transform="rotate(90 20 20)" />
  <path d="M10 28C10 22.4772 14.4772 18 20 18H30C32.7614 18 35 20.2386 35 23C35 25.7614 32.7614 28 30 28H10Z" fill="#FBBC05" opacity="0.9" transform="rotate(180 20 20)" />
  <path d="M10 12C10 14.7614 12.2386 17 15 17H25C30.5228 17 35 12.5228 35 7C35 1.47715 30.5228 -3 25 -3H15C12.2386 -3 10 -0.761424 10 2Z" fill="#34A853" opacity="0.9" transform="rotate(270 20 20)" />
</svg>
